<svg width="22" height="22" viewBox="0 0 22 22" fill="none" xmlns="http://www.w3.org/2000/svg">
<path fill-rule="evenodd" clip-rule="evenodd" d="M3.22183 3.22183C5.28473 1.15893 8.08262 0 11 0C13.9174 0 16.7153 1.15893 18.7782 3.22183C20.8411 5.28473 22 8.08262 22 11C22 13.9174 20.8411 16.7153 18.7782 18.7782C16.7153 20.8411 13.9174 22 11 22C8.08262 22 5.28473 20.8411 3.22183 18.7782C1.15893 16.7153 0 13.9174 0 11C0 8.08262 1.15893 5.28473 3.22183 3.22183ZM15.9504 7.69875C16.5009 7.63165 17.1153 7.4298 17.6004 7.21475C17.5536 7.28468 17.5093 7.35212 17.4664 7.41738C17.1775 7.85714 16.9541 8.19711 16.4905 8.52375C16.4965 8.63815 16.5004 9.02865 16.5004 9.14525C16.5004 12.6938 13.7817 16.4987 8.8004 16.4987C7.2714 16.4987 5.5983 16.1451 4.4004 15.3861C4.55626 15.4043 4.66176 15.4026 4.7941 15.4004C4.84156 15.3996 4.89248 15.3987 4.9504 15.3987C6.2198 15.3987 7.8731 15.0176 8.8004 14.2987C7.61515 14.2756 5.8843 13.713 5.54 12.6487C6.38025 12.6487 6.72771 12.5078 6.94823 12.4184C7.00601 12.395 7.05507 12.3751 7.102 12.3622C5.86395 12.1158 4.9504 11.2319 4.9504 9.9301V9.89875C5.31615 10.0962 6.15655 10.435 6.6004 10.4487C5.87275 9.96585 4.9537 8.95055 4.9537 7.9501C4.9537 7.4595 5.0857 6.9953 5.32055 6.59875C6.6554 8.2229 8.8004 9.89875 11.0004 9.89875V8.79875C11.0004 7.3165 12.0437 6.04875 13.5397 6.04875C14.3185 6.04875 15.0214 6.28085 15.5142 6.80335C16.1313 6.68455 17.0773 6.3562 17.6004 6.04875C17.3985 6.67465 16.5103 7.36655 15.9504 7.69875Z" fill="#1E433D"/>
</svg>
