<svg width="22" height="22" viewBox="0 0 22 22" fill="none" xmlns="http://www.w3.org/2000/svg">
<path d="M11.0066 0.00182724C16.5641 -0.104088 21.9974 4.40422 22.002 10.994C22.0066 17.1417 17.1345 22.0046 10.9974 22C4.40934 21.9908 -0.108434 16.5062 0.00197996 10.7822C0.121595 4.87394 5.05802 -0.0902731 11.0066 0.00182724ZM9.29055 19.0666C10.2889 19.0666 11.2596 19.0666 12.2533 19.0666C12.2533 17.8325 12.2533 16.6075 12.2533 15.3826C12.2533 14.1623 12.2533 12.9419 12.2533 11.694C13.2194 11.694 14.1488 11.694 15.0873 11.694C15.0873 10.7315 15.0873 9.79209 15.0873 8.82044C14.1396 8.82044 13.2056 8.82044 12.2947 8.82044C12.2947 8.03758 12.2671 7.28696 12.3039 6.54095C12.3269 6.05743 12.626 5.7581 13.1044 5.66139C13.3667 5.61074 13.6335 5.59692 13.9003 5.58771C14.3282 5.5739 14.7514 5.58311 15.1931 5.58311C15.1931 4.68052 15.1931 3.80097 15.1931 2.93983C14.2546 2.93983 13.3253 2.87996 12.4097 2.95364C10.7029 3.0964 9.52518 4.26607 9.35956 5.96993C9.27675 6.82186 9.31355 7.683 9.29975 8.53953C9.29975 8.62702 9.29975 8.71912 9.29975 8.82965C8.45785 8.82965 7.64814 8.82965 6.83384 8.82965C6.83384 9.79209 6.83384 10.7269 6.83384 11.7032C7.66195 11.7032 8.47625 11.7032 9.29975 11.7032C9.29055 14.1715 9.29055 16.6075 9.29055 19.0666Z" fill="#1E433D"/>
</svg>
